<?xml version="1.0" standalone="no"?>
<!DOCTYPE svg PUBLIC "-//W3C//DTD SVG 20010904//EN"
 "http://www.w3.org/TR/2001/REC-SVG-20010904/DTD/svg10.dtd">
<svg version="1.0" xmlns="http://www.w3.org/2000/svg"
 width="512.000000pt" height="512.000000pt" viewBox="0 0 512.000000 512.000000"
 preserveAspectRatio="xMidYMid meet">

<g transform="translate(0.000000,512.000000) scale(0.100000,-0.100000)"
fill="#000000" stroke="none">
<path d="M2275 3980 c-127 -9 -358 -42 -490 -71 -501 -109 -898 -303 -1189
-579 -196 -187 -314 -391 -357 -618 -17 -90 -6 -298 20 -388 90 -313 344 -599
721 -813 597 -339 1499 -464 2265 -315 538 105 965 303 1272 589 217 202 352
455 370 693 l6 82 -1367 0 -1366 0 0 -220 0 -220 713 -2 712 -3 -75 -79 c-121
-127 -224 -198 -390 -269 -358 -153 -849 -138 -1195 35 -176 89 -344 239 -429
383 -127 216 -140 461 -37 682 129 274 427 484 804 565 136 29 434 32 573 6
188 -36 404 -127 536 -227 80 -61 198 -185 244 -256 l35 -55 584 0 c394 0 585
3 585 10 0 6 -14 39 -31 73 -188 372 -635 691 -1205 861 -392 117 -865 166
-1309 136z"/>
</g>
</svg>
